<?xml version="1.0" standalone="no"?>
<!DOCTYPE svg PUBLIC "-//W3C//DTD SVG 20010904//EN"
 "http://www.w3.org/TR/2001/REC-SVG-20010904/DTD/svg10.dtd">
<svg version="1.0" xmlns="http://www.w3.org/2000/svg"
 width="512.000000pt" height="512.000000pt" viewBox="0 0 512.000000 512.000000"
 preserveAspectRatio="xMidYMid meet">
<metadata>
Created by potrace 1.14, written by Peter Selinger 2001-2017
</metadata>
<g transform="translate(0.000000,512.000000) scale(0.100000,-0.100000)"
fill="#000000" stroke="none">
<path d="M230 4133 c-38 -15 -86 -99 -145 -254 -57 -148 -79 -273 -78 -434 0
-144 3 -176 22 -256 24 -103 95 -274 143 -341 l19 -27 -34 -68 c-43 -87 -75
-182 -93 -281 -15 -88 -12 -270 6 -347 6 -27 13 -57 15 -65 14 -62 65 -175
122 -273 28 -48 126 -159 185 -208 163 -137 501 -324 742 -412 367 -135 683
-188 1081 -181 222 3 248 4 345 18 861 124 1605 591 2073 1304 73 111 161 257
162 272 1 3 20 43 42 90 49 100 83 179 88 200 2 8 13 39 25 69 18 47 62 188
76 244 56 229 82 403 90 596 3 81 2 85 -26 112 -27 27 -44 34 -80 30 -37 -4
-62 -29 -96 -95 -111 -212 -259 -410 -425 -571 -220 -213 -403 -331 -724 -470
-96 -42 -258 -87 -409 -115 -144 -26 -231 -34 -396 -33 -196 0 -286 10 -515
57 -63 14 -238 72 -322 108 -178 75 -267 126 -473 269 -143 99 -212 136 -325
172 -112 36 -133 40 -285 43 -120 2 -147 -1 -245 -26 -163 -41 -280 -103 -413
-218 -74 -64 -73 -65 -121 61 -102 263 -85 527 55 825 50 105 54 140 22 177
-23 26 -78 40 -108 28z"/>
</g>
</svg>
